<svg xmlns="http://www.w3.org/2000/svg" xmlns:xlink="http://www.w3.org/1999/xlink" width="500" zoomAndPan="magnify" viewBox="0 0 375 374.999991" height="500" preserveAspectRatio="xMidYMid meet" version="1.0"><defs><g/><clipPath id="17c0464647"><path d="M 119.308594 140 L 188 140 L 188 200.019531 L 119.308594 200.019531 Z M 119.308594 140 " clip-rule="nonzero"/></clipPath><clipPath id="59a5264205"><path d="M 187 108.519531 L 255.808594 108.519531 L 255.808594 169 L 187 169 Z M 187 108.519531 " clip-rule="nonzero"/></clipPath></defs><g clip-path="url(#17c0464647)"><path fill="#34b4ff" d="M 165.230469 182.664062 L 165.230469 190.964844 L 127.636719 173.5 L 127.636719 166.765625 L 165.230469 149.296875 L 165.230469 157.601562 L 136.800781 170.054688 L 136.800781 170.210938 Z M 187.558594 140.074219 L 124.6875 140.074219 C 121.71875 140.074219 119.3125 142.480469 119.3125 145.449219 L 119.3125 194.816406 C 119.3125 197.785156 121.71875 200.191406 124.6875 200.191406 L 170.105469 200.191406 L 187.558594 140.074219 " fill-opacity="1" fill-rule="nonzero"/></g><g clip-path="url(#59a5264205)"><path fill="#fc8727" d="M 247.378906 142.210938 L 209.785156 159.441406 L 209.785156 151.136719 L 238.839844 138.683594 L 238.839844 138.527344 L 209.785156 126.074219 L 209.785156 117.773438 L 247.378906 135.003906 Z M 205.011719 108.546875 L 187.558594 168.664062 L 250.328125 168.664062 C 253.292969 168.664062 255.699219 166.257812 255.699219 163.289062 L 255.699219 113.921875 C 255.699219 110.953125 253.292969 108.546875 250.328125 108.546875 L 205.011719 108.546875 " fill-opacity="1" fill-rule="nonzero"/></g><g fill="#000000" fill-opacity="1"><g transform="translate(50.378472, 236.784858)"><g><path d="M 14.171875 -21 L 14.171875 -5.390625 C 14.171875 -3.660156 13.59375 -2.28125 12.4375 -1.25 C 11.28125 -0.226562 9.628906 0.28125 7.484375 0.28125 C 5.578125 0.28125 4.0625 -0.125 2.9375 -0.9375 C 1.820312 -1.757812 1.144531 -2.882812 0.90625 -4.3125 L 5.453125 -5.640625 C 5.546875 -5.097656 5.78125 -4.648438 6.15625 -4.296875 C 6.53125 -3.953125 6.972656 -3.78125 7.484375 -3.78125 C 8.066406 -3.78125 8.554688 -3.988281 8.953125 -4.40625 C 9.359375 -4.832031 9.5625 -5.359375 9.5625 -5.984375 L 9.5625 -16.90625 L 2.65625 -16.90625 L 2.65625 -21 Z M 14.171875 -21 "/></g></g></g><g fill="#000000" fill-opacity="1"><g transform="translate(67.533266, 236.784858)"><g><path d="M 10.671875 0.28125 C 9.035156 0.28125 7.554688 -0.0234375 6.234375 -0.640625 C 4.921875 -1.265625 3.878906 -2.109375 3.109375 -3.171875 C 2.335938 -4.234375 1.953125 -5.414062 1.953125 -6.71875 L 1.953125 -21 L 6.578125 -21 L 6.578125 -7.59375 C 6.578125 -6.519531 6.972656 -5.617188 7.765625 -4.890625 C 8.554688 -4.171875 9.523438 -3.8125 10.671875 -3.8125 C 11.835938 -3.8125 12.816406 -4.171875 13.609375 -4.890625 C 14.410156 -5.617188 14.8125 -6.519531 14.8125 -7.59375 L 14.8125 -21 L 19.421875 -21 L 19.421875 -6.71875 C 19.421875 -5.414062 19.035156 -4.234375 18.265625 -3.171875 C 17.492188 -2.109375 16.445312 -1.265625 15.125 -0.640625 C 13.8125 -0.0234375 12.328125 0.28125 10.671875 0.28125 Z M 10.671875 0.28125 "/></g></g></g><g fill="#000000" fill-opacity="1"><g transform="translate(90.147303, 236.784858)"><g><path d="M 6.6875 -4.09375 L 13.65625 -4.09375 L 13.65625 0 L 2.0625 0 L 2.0625 -21 L 6.6875 -21 Z M 6.6875 -4.09375 "/></g></g></g><g fill="#000000" fill-opacity="1"><g transform="translate(105.097403, 236.784858)"><g><path d="M 2.234375 0 L 2.234375 -21 L 6.859375 -21 L 6.859375 0 Z M 2.234375 0 "/></g></g></g><g fill="#000000" fill-opacity="1"><g transform="translate(115.39316, 236.784858)"><g><path d="M 14.90625 0 L 13.609375 -3.953125 L 5.78125 -3.953125 L 4.484375 0 L -0.453125 0 L 7.109375 -21 L 12.28125 -21 L 19.84375 0 Z M 7 -7.8125 L 12.390625 -7.8125 L 9.6875 -16.140625 Z M 7 -7.8125 "/></g></g></g><g fill="#000000" fill-opacity="1"><g transform="translate(136.012483, 236.784858)"><g><path d="M 17.15625 -21 L 21.734375 -21 L 21.734375 0 L 16.96875 0 L 6.6875 -13.9375 L 6.6875 0 L 2.0625 0 L 2.0625 -21 L 6.828125 -21 L 17.15625 -7.109375 Z M 17.15625 -21 "/></g></g></g><g fill="#000000" fill-opacity="1"><g transform="translate(161.07618, 236.784858)"><g/></g></g><g fill="#000000" fill-opacity="1"><g transform="translate(170.707024, 236.784858)"><g><path d="M 8.546875 0.28125 C 6.703125 0.28125 5.078125 -0.171875 3.671875 -1.078125 C 2.273438 -1.992188 1.238281 -3.101562 0.5625 -4.40625 L 4.375 -6.796875 C 4.769531 -5.972656 5.328125 -5.3125 6.046875 -4.8125 C 6.773438 -4.3125 7.617188 -4.0625 8.578125 -4.0625 C 9.390625 -4.0625 10.023438 -4.234375 10.484375 -4.578125 C 10.941406 -4.929688 11.171875 -5.398438 11.171875 -5.984375 C 11.171875 -6.585938 10.9375 -7.078125 10.46875 -7.453125 C 10 -7.828125 9.394531 -8.140625 8.65625 -8.390625 C 7.925781 -8.648438 7.144531 -8.925781 6.3125 -9.21875 C 5.488281 -9.507812 4.707031 -9.890625 3.96875 -10.359375 C 3.238281 -10.828125 2.640625 -11.429688 2.171875 -12.171875 C 1.703125 -12.921875 1.46875 -13.890625 1.46875 -15.078125 C 1.46875 -16.484375 1.796875 -17.640625 2.453125 -18.546875 C 3.109375 -19.460938 3.953125 -20.144531 4.984375 -20.59375 C 6.023438 -21.050781 7.09375 -21.28125 8.1875 -21.28125 C 9.5 -21.28125 10.710938 -21.003906 11.828125 -20.453125 C 12.953125 -19.910156 13.898438 -19.195312 14.671875 -18.3125 L 11.578125 -15.359375 C 11.066406 -15.941406 10.519531 -16.390625 9.9375 -16.703125 C 9.351562 -17.023438 8.757812 -17.1875 8.15625 -17.1875 C 7.59375 -17.1875 7.113281 -17.046875 6.71875 -16.765625 C 6.320312 -16.484375 6.125 -16.039062 6.125 -15.4375 C 6.125 -14.832031 6.359375 -14.351562 6.828125 -14 C 7.296875 -13.644531 7.894531 -13.335938 8.625 -13.078125 C 9.363281 -12.828125 10.140625 -12.550781 10.953125 -12.25 C 11.773438 -11.945312 12.550781 -11.550781 13.28125 -11.0625 C 14.019531 -10.570312 14.617188 -9.921875 15.078125 -9.109375 C 15.546875 -8.304688 15.78125 -7.253906 15.78125 -5.953125 C 15.78125 -4.640625 15.445312 -3.515625 14.78125 -2.578125 C 14.125 -1.648438 13.242188 -0.941406 12.140625 -0.453125 C 11.046875 0.0351562 9.847656 0.28125 8.546875 0.28125 Z M 8.546875 0.28125 "/></g></g></g><g fill="#000000" fill-opacity="1"><g transform="translate(188.526732, 236.784858)"><g><path d="M 12.078125 0.28125 C 10.578125 0.28125 9.179688 0 7.890625 -0.5625 C 6.597656 -1.125 5.453125 -1.898438 4.453125 -2.890625 C 3.460938 -3.878906 2.6875 -5.019531 2.125 -6.3125 C 1.570312 -7.613281 1.296875 -9.007812 1.296875 -10.5 C 1.296875 -11.988281 1.570312 -13.378906 2.125 -14.671875 C 2.6875 -15.972656 3.460938 -17.117188 4.453125 -18.109375 C 5.453125 -19.097656 6.597656 -19.875 7.890625 -20.4375 C 9.179688 -21 10.578125 -21.28125 12.078125 -21.28125 C 14.148438 -21.28125 16.035156 -20.75 17.734375 -19.6875 C 19.441406 -18.625 20.738281 -17.226562 21.625 -15.5 L 17.640625 -13.4375 C 17.128906 -14.4375 16.382812 -15.238281 15.40625 -15.84375 C 14.425781 -16.457031 13.316406 -16.765625 12.078125 -16.765625 C 10.910156 -16.765625 9.851562 -16.488281 8.90625 -15.9375 C 7.957031 -15.394531 7.207031 -14.648438 6.65625 -13.703125 C 6.113281 -12.753906 5.84375 -11.6875 5.84375 -10.5 C 5.84375 -9.3125 6.113281 -8.242188 6.65625 -7.296875 C 7.207031 -6.347656 7.957031 -5.597656 8.90625 -5.046875 C 9.851562 -4.503906 10.910156 -4.234375 12.078125 -4.234375 C 13.316406 -4.234375 14.425781 -4.535156 15.40625 -5.140625 C 16.382812 -5.753906 17.128906 -6.5625 17.640625 -7.5625 L 21.625 -5.5 C 20.738281 -3.789062 19.441406 -2.398438 17.734375 -1.328125 C 16.035156 -0.253906 14.148438 0.28125 12.078125 0.28125 Z M 12.078125 0.28125 "/></g></g></g><g fill="#000000" fill-opacity="1"><g transform="translate(212.295618, 236.784858)"><g><path d="M 15.21875 -21 L 19.8125 -21 L 19.8125 0 L 15.21875 0 L 15.21875 -8.46875 L 6.6875 -8.46875 L 6.6875 0 L 2.0625 0 L 2.0625 -21 L 6.6875 -21 L 6.6875 -12.5625 L 15.21875 -12.5625 Z M 15.21875 -21 "/></g></g></g><g fill="#000000" fill-opacity="1"><g transform="translate(235.434585, 236.784858)"><g><path d="M 14.875 -16.9375 L 6.859375 -16.9375 L 6.859375 -12.53125 L 13.71875 -12.53125 L 13.71875 -8.46875 L 6.859375 -8.46875 L 6.859375 -4.0625 L 14.875 -4.0625 L 14.875 0 L 2.234375 0 L 2.234375 -21 L 14.875 -21 Z M 14.875 -16.9375 "/></g></g></g><g fill="#000000" fill-opacity="1"><g transform="translate(252.974337, 236.784858)"><g><path d="M 2.234375 0 L 2.234375 -21 L 6.859375 -21 L 6.859375 0 Z M 2.234375 0 "/></g></g></g><g fill="#000000" fill-opacity="1"><g transform="translate(263.270082, 236.784858)"><g><path d="M 17.15625 -21 L 21.734375 -21 L 21.734375 0 L 16.96875 0 L 6.6875 -13.9375 L 6.6875 0 L 2.0625 0 L 2.0625 -21 L 6.828125 -21 L 17.15625 -7.109375 Z M 17.15625 -21 "/></g></g></g><g fill="#000000" fill-opacity="1"><g transform="translate(288.333786, 236.784858)"><g><path d="M 14.875 -16.9375 L 6.859375 -16.9375 L 6.859375 -12.53125 L 13.71875 -12.53125 L 13.71875 -8.46875 L 6.859375 -8.46875 L 6.859375 -4.0625 L 14.875 -4.0625 L 14.875 0 L 2.234375 0 L 2.234375 -21 L 14.875 -21 Z M 14.875 -16.9375 "/></g></g></g><g fill="#000000" fill-opacity="1"><g transform="translate(305.873526, 236.784858)"><g><path d="M 13.015625 -8.640625 L 18.90625 0 L 13.71875 0 L 8.546875 -8.125 L 6.6875 -8.125 L 6.6875 0 L 2.0625 0 L 2.0625 -21 L 10.984375 -21 C 12.203125 -21 13.273438 -20.710938 14.203125 -20.140625 C 15.140625 -19.566406 15.878906 -18.789062 16.421875 -17.8125 C 16.972656 -16.832031 17.25 -15.75 17.25 -14.5625 C 17.25 -13.132812 16.851562 -11.882812 16.0625 -10.8125 C 15.269531 -9.738281 14.253906 -9.015625 13.015625 -8.640625 Z M 10.296875 -11.9375 C 11.035156 -11.9375 11.644531 -12.164062 12.125 -12.625 C 12.601562 -13.09375 12.84375 -13.691406 12.84375 -14.421875 C 12.84375 -15.140625 12.601562 -15.734375 12.125 -16.203125 C 11.644531 -16.671875 11.035156 -16.90625 10.296875 -16.90625 L 6.6875 -16.90625 L 6.6875 -11.9375 Z M 10.296875 -11.9375 "/></g></g></g><g fill="#34b4ff" fill-opacity="1"><g transform="translate(100.252007, 263.17888)"><g><path d="M 11.234375 -9 L 12.21875 -9 L 9.421875 0 L 8.421875 0 L 6.0625 -7.984375 L 3.75 0 L 2.734375 0 L -0.09375 -9 L 0.9375 -9 L 3.21875 -1.625 L 5.390625 -9 L 6.734375 -9 L 8.921875 -1.609375 Z M 11.234375 -9 "/></g></g></g><g fill="#34b4ff" fill-opacity="1"><g transform="translate(116.407064, 263.17888)"><g><path d="M 6.09375 -8.0625 L 2.125 -8.0625 L 2.125 -4.96875 L 5.578125 -4.96875 L 5.578125 -4.03125 L 2.125 -4.03125 L 2.125 -0.9375 L 6.09375 -0.9375 L 6.09375 0 L 1.171875 0 L 1.171875 -9 L 6.09375 -9 Z M 6.09375 -8.0625 "/></g></g></g><g fill="#34b4ff" fill-opacity="1"><g transform="translate(127.417132, 263.17888)"><g><path d="M 5.53125 -4.5625 C 6 -4.394531 6.382812 -4.125 6.6875 -3.75 C 6.988281 -3.375 7.140625 -2.914062 7.140625 -2.375 C 7.140625 -1.914062 7.03125 -1.503906 6.8125 -1.140625 C 6.59375 -0.773438 6.296875 -0.492188 5.921875 -0.296875 C 5.554688 -0.0976562 5.144531 0 4.6875 0 L 1.09375 0 L 1.09375 -9 L 4.359375 -9 C 4.828125 -9 5.25 -8.894531 5.625 -8.6875 C 6 -8.488281 6.296875 -8.207031 6.515625 -7.84375 C 6.742188 -7.488281 6.859375 -7.070312 6.859375 -6.59375 C 6.859375 -6.113281 6.738281 -5.695312 6.5 -5.34375 C 6.257812 -5 5.9375 -4.738281 5.53125 -4.5625 Z M 5.890625 -6.53125 C 5.890625 -6.96875 5.726562 -7.328125 5.40625 -7.609375 C 5.09375 -7.898438 4.710938 -8.046875 4.265625 -8.046875 L 2.046875 -8.046875 L 2.046875 -4.96875 L 4.265625 -4.96875 C 4.710938 -4.96875 5.09375 -5.113281 5.40625 -5.40625 C 5.726562 -5.707031 5.890625 -6.082031 5.890625 -6.53125 Z M 4.5625 -0.953125 C 5 -0.953125 5.378906 -1.09375 5.703125 -1.375 C 6.023438 -1.664062 6.1875 -2.03125 6.1875 -2.46875 C 6.1875 -2.914062 6.023438 -3.285156 5.703125 -3.578125 C 5.378906 -3.878906 5 -4.03125 4.5625 -4.03125 L 2.046875 -4.03125 L 2.046875 -0.953125 Z M 4.5625 -0.953125 "/></g></g></g><g fill="#34b4ff" fill-opacity="1"><g transform="translate(139.2822, 263.17888)"><g/></g></g><g fill="#34b4ff" fill-opacity="1"><g transform="translate(146.917268, 263.17888)"><g><path d="M 1.09375 0 L 1.09375 -9 L 3.5625 -9 C 4.175781 -9 4.753906 -8.878906 5.296875 -8.640625 C 5.847656 -8.410156 6.328125 -8.085938 6.734375 -7.671875 C 7.140625 -7.265625 7.460938 -6.789062 7.703125 -6.25 C 7.941406 -5.707031 8.0625 -5.125 8.0625 -4.5 C 8.0625 -3.875 7.941406 -3.289062 7.703125 -2.75 C 7.460938 -2.207031 7.140625 -1.726562 6.734375 -1.3125 C 6.328125 -0.90625 5.847656 -0.582031 5.296875 -0.34375 C 4.753906 -0.113281 4.175781 0 3.5625 0 Z M 2.046875 -0.953125 L 3.546875 -0.953125 C 4.210938 -0.953125 4.8125 -1.109375 5.34375 -1.421875 C 5.882812 -1.734375 6.3125 -2.15625 6.625 -2.6875 C 6.9375 -3.226562 7.09375 -3.832031 7.09375 -4.5 C 7.09375 -5.175781 6.9375 -5.78125 6.625 -6.3125 C 6.3125 -6.84375 5.882812 -7.265625 5.34375 -7.578125 C 4.8125 -7.890625 4.210938 -8.046875 3.546875 -8.046875 L 2.046875 -8.046875 Z M 2.046875 -0.953125 "/></g></g></g><g fill="#34b4ff" fill-opacity="1"><g transform="translate(159.727332, 263.17888)"><g><path d="M 6.09375 -8.0625 L 2.125 -8.0625 L 2.125 -4.96875 L 5.578125 -4.96875 L 5.578125 -4.03125 L 2.125 -4.03125 L 2.125 -0.9375 L 6.09375 -0.9375 L 6.09375 0 L 1.171875 0 L 1.171875 -9 L 6.09375 -9 Z M 6.09375 -8.0625 "/></g></g></g><g fill="#34b4ff" fill-opacity="1"><g transform="translate(170.7374, 263.17888)"><g><path d="M 6.53125 -9 L 7.578125 -9 L 4.3125 0 L 3.25 0 L 0 -9 L 1.0625 -9 L 3.796875 -1.234375 Z M 6.53125 -9 "/></g></g></g><g fill="#34b4ff" fill-opacity="1"><g transform="translate(182.332467, 263.17888)"><g><path d="M 6.09375 -8.0625 L 2.125 -8.0625 L 2.125 -4.96875 L 5.578125 -4.96875 L 5.578125 -4.03125 L 2.125 -4.03125 L 2.125 -0.9375 L 6.09375 -0.9375 L 6.09375 0 L 1.171875 0 L 1.171875 -9 L 6.09375 -9 Z M 6.09375 -8.0625 "/></g></g></g><g fill="#34b4ff" fill-opacity="1"><g transform="translate(193.342536, 263.17888)"><g><path d="M 2.0625 -0.953125 L 5.40625 -0.953125 L 5.40625 0 L 1.09375 0 L 1.09375 -9 L 2.0625 -9 Z M 2.0625 -0.953125 "/></g></g></g><g fill="#34b4ff" fill-opacity="1"><g transform="translate(202.897608, 263.17888)"><g><path d="M 5.359375 0.125 C 4.710938 0.125 4.113281 0.00390625 3.5625 -0.234375 C 3.007812 -0.472656 2.519531 -0.804688 2.09375 -1.234375 C 1.664062 -1.660156 1.332031 -2.148438 1.09375 -2.703125 C 0.851562 -3.265625 0.734375 -3.863281 0.734375 -4.5 C 0.734375 -5.132812 0.851562 -5.726562 1.09375 -6.28125 C 1.332031 -6.84375 1.664062 -7.335938 2.09375 -7.765625 C 2.519531 -8.191406 3.007812 -8.523438 3.5625 -8.765625 C 4.113281 -9.003906 4.710938 -9.125 5.359375 -9.125 C 5.992188 -9.125 6.59375 -9.003906 7.15625 -8.765625 C 7.71875 -8.523438 8.207031 -8.191406 8.625 -7.765625 C 9.039062 -7.335938 9.367188 -6.84375 9.609375 -6.28125 C 9.847656 -5.726562 9.96875 -5.132812 9.96875 -4.5 C 9.96875 -3.863281 9.847656 -3.265625 9.609375 -2.703125 C 9.367188 -2.148438 9.039062 -1.660156 8.625 -1.234375 C 8.207031 -0.804688 7.71875 -0.472656 7.15625 -0.234375 C 6.59375 0.00390625 5.992188 0.125 5.359375 0.125 Z M 5.359375 -0.84375 C 6.035156 -0.84375 6.648438 -1.003906 7.203125 -1.328125 C 7.765625 -1.648438 8.207031 -2.085938 8.53125 -2.640625 C 8.851562 -3.203125 9.015625 -3.820312 9.015625 -4.5 C 9.015625 -5.175781 8.851562 -5.789062 8.53125 -6.34375 C 8.207031 -6.90625 7.765625 -7.347656 7.203125 -7.671875 C 6.648438 -7.992188 6.035156 -8.15625 5.359375 -8.15625 C 4.679688 -8.15625 4.066406 -7.992188 3.515625 -7.671875 C 2.960938 -7.347656 2.519531 -6.90625 2.1875 -6.34375 C 1.851562 -5.789062 1.6875 -5.175781 1.6875 -4.5 C 1.6875 -3.820312 1.851562 -3.203125 2.1875 -2.640625 C 2.519531 -2.085938 2.960938 -1.648438 3.515625 -1.328125 C 4.066406 -1.003906 4.679688 -0.84375 5.359375 -0.84375 Z M 5.359375 -0.84375 "/></g></g></g><g fill="#34b4ff" fill-opacity="1"><g transform="translate(217.642678, 263.17888)"><g><path d="M 4.3125 -9 C 4.789062 -9 5.21875 -8.882812 5.59375 -8.65625 C 5.96875 -8.4375 6.265625 -8.132812 6.484375 -7.75 C 6.710938 -7.375 6.828125 -6.957031 6.828125 -6.5 C 6.828125 -6.039062 6.710938 -5.617188 6.484375 -5.234375 C 6.265625 -4.859375 5.96875 -4.554688 5.59375 -4.328125 C 5.21875 -4.109375 4.789062 -4 4.3125 -4 L 2.0625 -4 L 2.0625 0 L 1.09375 0 L 1.09375 -9 Z M 4.234375 -4.921875 C 4.679688 -4.921875 5.0625 -5.054688 5.375 -5.328125 C 5.695312 -5.609375 5.859375 -5.992188 5.859375 -6.484375 C 5.859375 -6.960938 5.695312 -7.34375 5.375 -7.625 C 5.0625 -7.914062 4.679688 -8.0625 4.234375 -8.0625 L 2.0625 -8.0625 L 2.0625 -4.921875 Z M 4.234375 -4.921875 "/></g></g></g><g fill="#34b4ff" fill-opacity="1"><g transform="translate(228.742737, 263.17888)"><g><path d="M 9.03125 -9 L 10.03125 -9 L 10.03125 0 L 9.09375 0 L 9.09375 -7.078125 L 5.953125 0 L 5.15625 0 L 2.0625 -7.109375 L 2.0625 0 L 1.09375 0 L 1.09375 -9 L 2.109375 -9 L 5.5625 -1.15625 Z M 9.03125 -9 "/></g></g></g><g fill="#34b4ff" fill-opacity="1"><g transform="translate(243.892791, 263.17888)"><g><path d="M 6.09375 -8.0625 L 2.125 -8.0625 L 2.125 -4.96875 L 5.578125 -4.96875 L 5.578125 -4.03125 L 2.125 -4.03125 L 2.125 -0.9375 L 6.09375 -0.9375 L 6.09375 0 L 1.171875 0 L 1.171875 -9 L 6.09375 -9 Z M 6.09375 -8.0625 "/></g></g></g><g fill="#34b4ff" fill-opacity="1"><g transform="translate(254.902853, 263.17888)"><g><path d="M 7.5625 -9 L 8.5 -9 L 8.5 0 L 7.609375 0 L 2.0625 -7.390625 L 2.0625 0 L 1.09375 0 L 1.09375 -9 L 2 -9 L 7.5625 -1.609375 Z M 7.5625 -9 "/></g></g></g><g fill="#34b4ff" fill-opacity="1"><g transform="translate(268.522923, 263.17888)"><g><path d="M 6.078125 -9 L 6.078125 -8.046875 L 3.578125 -8.046875 L 3.578125 0 L 2.625 0 L 2.625 -8.046875 L 0.140625 -8.046875 L 0.140625 -9 Z M 6.078125 -9 "/></g></g></g></svg>